HIERARCHY
ROOT hip
{
	OFFSET 0.000000 0.000000 0.000000 
	CHANNELS 6 Xposition Yposition Zposition Xrotation Zrotation Yrotation
	JOINT abdomen
	{
		OFFSET 0.000000 3.402643 0.000000 
		CHANNELS 3 Xrotation Zrotation Yrotation
		JOINT chest
		{
			OFFSET 0.000000 8.438565 -0.680529 
			CHANNELS 3 Xrotation Zrotation Yrotation
			JOINT neck
			{
				OFFSET 0.000000 10.207942 -0.272212 
				CHANNELS 3 Xrotation Zrotation Yrotation
				JOINT head
				{
					OFFSET 0.000000 3.130431 0.000000 
					CHANNELS 3 Xrotation Zrotation Yrotation
					End Site
					{
						OFFSET 0.000000 3.130435 0.000000 
					}
				}
			}
			JOINT lCollar
			{
				OFFSET 3.470700 6.669187 -0.816635 
				CHANNELS 3 Yrotation Zrotation Xrotation
				JOINT lShldr
				{
					OFFSET 3.198488 0.000000 0.000000 
					CHANNELS 3 Zrotation Yrotation Xrotation
					JOINT lForeArm
					{
						OFFSET 10.139888 0.000000 0.000000 
						CHANNELS 3 Yrotation Zrotation Xrotation
						JOINT lHand
						{
							OFFSET 8.370511 0.000000 0.000000 
							CHANNELS 3 Zrotation Yrotation Xrotation
							End Site
							{
								OFFSET 4.083176 0.000000 0.000000 
							}
						}
					}
				}
			}
			JOINT rCollar
			{
				OFFSET -3.470700 6.669187 -0.816635 
				CHANNELS 3 Yrotation Zrotation Xrotation
				JOINT rShldr
				{
					OFFSET -3.198488 0.000000 0.000000 
					CHANNELS 3 Zrotation Yrotation Xrotation
					JOINT rForeArm
					{
						OFFSET -10.139888 0.000000 0.000000 
						CHANNELS 3 Yrotation Zrotation Xrotation
						JOINT rHand
						{
							OFFSET -8.370511 0.000000 0.000000 
							CHANNELS 3 Zrotation Yrotation Xrotation
							End Site
							{
								OFFSET -4.083176 0.000000 0.000000 
							}
						}
					}
				}
			}
		}
	}
	JOINT lThigh
	{
		OFFSET 5.308129 -1.633274 1.361059 
		CHANNELS 3 Xrotation Zrotation Yrotation
		JOINT lShin
		{
			OFFSET -2.041588 -20.007561 0.000000 
			CHANNELS 3 Xrotation Zrotation Yrotation
			JOINT lFoot
			{
				OFFSET 0.000000 -19.190928 -1.224953 
				CHANNELS 3 Xrotation Yrotation Zrotation
				End Site
				{
					OFFSET 0.000000 -2.449906 4.627600 
				}
			}
		}
	}
	JOINT rThigh
	{
		OFFSET -5.308129 -1.633274 1.361059 
		CHANNELS 3 Xrotation Zrotation Yrotation
		JOINT rShin
		{
			OFFSET 2.041588 -20.007561 0.000000 
			CHANNELS 3 Xrotation Zrotation Yrotation
			JOINT rFoot
			{
				OFFSET 0.000000 -19.190928 -1.224953 
				CHANNELS 3 Xrotation Yrotation Zrotation
				End Site
				{
					OFFSET 0.000000 -2.449906 4.627600 
				}
			}
		}
	}
}
MOTION
Frames: 13
Frame Time: 0.033333
-72.527206 50.839924 37.280819 -2.380351 0.517506 99.175056 0.000000 0.000000 0.000000 3.798348 3.758965 1.184220 3.828242 6.103236 -0.548967 -19.690485 10.302012 -5.081607 -6.823412 6.302659 4.667322 -80.029213 -20.363337 20.456289 -43.699409 -8.924211 13.026816 14.587380 5.345423 -3.278645 9.730635 12.295388 2.879818 46.781216 0.944287 15.540043 35.140392 11.233610 19.173346 -8.580673 -17.273710 -2.663552 -22.481544 6.627782 0.375126 3.361352 -0.248326 23.474318 10.593463 0.143763 1.290914 6.072684 2.479717 -3.954196 9.091604 3.289586 -27.012598 -14.699568 -0.574699 4.206234 
-71.604324 50.691017 37.014732 -2.283116 0.558434 98.419205 0.000000 0.000000 0.000000 4.006747 3.502252 2.602943 4.339686 5.878577 0.609286 -20.657057 10.998904 -5.829585 -5.688200 5.935322 4.771312 -78.290573 -17.121775 18.786518 -41.923260 -9.199280 12.634954 13.716598 6.919754 -3.122259 11.165747 11.875643 3.046710 47.986755 -0.198754 15.508734 35.140369 11.076788 19.120909 -8.304541 -16.731636 -2.719057 -21.403522 6.385520 0.245002 -1.918752 -1.191251 21.446114 11.894115 0.013281 0.345129 7.387786 2.048949 -4.223803 9.315343 3.307873 -25.677803 -15.849631 -0.724357 4.851926 
-70.519653 50.473324 36.678684 -2.358998 0.959577 97.497887 0.000000 0.000000 0.000000 4.322390 3.294034 3.668396 4.817530 5.857216 1.561568 -21.187233 11.477490 -6.187564 -4.410916 5.764197 4.964200 -76.434937 -13.526152 17.202440 -39.931805 -9.563396 12.015917 13.952284 8.311610 -2.959809 12.365731 12.002821 3.276443 48.606876 -0.970925 15.781730 35.559452 11.135224 18.355318 -8.559517 -16.319046 -2.718209 -20.919596 6.110738 0.075175 -1.620705 -1.347547 18.718920 12.078714 -0.053558 -0.475989 9.157760 1.620218 -4.632914 9.665916 3.384912 -24.163883 -17.204424 -0.924343 5.684323 
-69.306747 50.202499 36.299427 -2.497841 1.406832 95.739029 0.000000 0.000000 0.000000 4.597078 3.035674 4.919163 4.857453 5.667067 2.807273 -20.916126 12.228786 -6.463995 -2.832754 5.267701 5.105140 -74.146065 -9.715844 15.632609 -37.563034 -9.964509 12.290417 14.044441 9.763318 -2.798187 13.591746 12.254000 3.485558 48.915207 -1.234390 16.231855 35.656887 11.318392 18.610735 -8.926456 -16.337299 -2.680393 -19.298752 6.266723 0.388445 -1.477389 -0.888111 20.996632 15.476421 -0.108081 -0.561368 10.992510 1.044095 -5.005693 10.243772 3.279311 -22.131161 -18.662876 -1.141818 6.677886 
-68.183540 50.108551 35.901875 -1.722189 1.420458 94.447136 0.000000 0.000000 0.000000 4.803179 1.953303 5.667418 4.826614 4.960744 3.637325 -20.625889 13.299860 -6.723907 -2.091857 3.605332 5.183500 -71.164474 -5.321625 13.314863 -35.066357 -10.015866 13.265821 13.720014 10.448620 -2.754526 14.308321 12.060437 3.835848 49.440407 -0.460595 16.802078 34.701027 11.589364 19.351751 -9.447708 -16.168604 -2.627736 -19.055729 5.837414 0.731371 -1.059776 -0.450186 28.218735 18.807823 0.078358 0.379357 13.758967 -0.019663 -5.301510 7.819762 2.730163 -20.690065 -18.565348 -1.247217 7.339201 
-67.009285 50.146282 35.526569 0.366806 1.986224 94.257668 0.000000 0.000000 0.000000 5.500924 -0.369325 5.595775 5.480456 3.823047 2.956324 -21.737801 13.447097 -7.017381 -2.453233 0.970020 5.747916 -67.880760 -0.240327 10.875003 -33.742928 -9.783505 14.216802 13.349955 11.400317 -2.666388 13.918200 10.524273 4.983019 51.292301 1.246954 17.306370 33.091057 11.749189 20.112436 -10.178735 -16.164146 -2.545819 -18.573261 3.183220 -0.190360 1.972081 0.097958 28.618155 16.368010 0.210831 1.334564 18.087276 -1.845940 -6.314113 3.613925 1.756476 -20.070946 -17.694620 -1.263682 7.982909 
-65.869774 50.269379 35.055382 2.062860 2.023252 94.000916 0.000000 0.000000 0.000000 5.709698 -2.128511 5.589688 5.596733 2.555863 2.649511 -21.567596 14.180294 -7.473856 -2.881338 -0.620523 5.871546 -65.906303 5.272686 8.576750 -33.079369 -9.302822 14.110328 13.002593 12.524796 -2.584214 13.629690 8.518002 5.613548 53.998974 1.931234 17.619179 32.674458 11.523219 20.422606 -10.392170 -16.052382 -2.529743 -19.147921 1.152027 -0.650301 6.441174 0.119528 29.137617 13.843257 0.211011 1.599629 20.573751 -3.632740 -7.733330 1.923074 1.451508 -18.476692 -18.016788 -1.391792 8.592736 
-64.760124 50.549328 34.547680 1.946745 1.589227 92.356354 0.000000 0.000000 0.000000 5.306220 -2.415509 6.607194 5.466303 1.920405 3.419974 -21.156687 14.938423 -8.258390 -1.715708 -0.519509 5.534784 -65.461365 9.596358 6.589967 -31.650055 -8.787556 13.708418 12.442802 14.014239 -2.483043 14.660947 7.792984 5.360167 55.788616 1.333745 17.762024 33.359234 11.269342 19.407759 -9.871920 -15.846760 -2.605277 -18.616688 1.502962 0.301305 7.905602 -0.504983 29.520777 11.568844 0.218432 1.868887 21.107206 -4.667332 -8.428567 2.058639 1.605652 -15.050043 -16.938745 -1.393164 9.015464 
-63.756908 50.990410 34.031437 1.838540 0.467725 90.637985 0.000000 0.000000 0.000000 4.441465 -2.749568 7.528159 5.520315 1.003344 4.053480 -22.303043 15.777995 -9.499550 -0.315334 -0.682919 4.775664 -65.277550 13.489807 4.645386 -31.080065 -8.051692 13.801478 11.682962 15.674879 -2.402254 15.898237 6.739583 4.716424 57.530006 1.330674 18.427931 33.022259 11.431862 17.915812 -9.770240 -15.643157 -2.631636 -17.490147 1.570704 0.695143 6.399114 -0.764465 30.523193 10.942445 0.246682 2.234260 20.578981 -6.073047 -9.288126 2.068197 2.044109 -10.750493 -10.922129 -0.924737 9.079662 
-62.785305 51.373047 33.536591 1.309111 -0.138946 89.572784 0.000000 0.000000 0.000000 3.904345 -2.542561 8.132976 4.981947 1.597161 4.249932 -19.515242 12.853236 -7.783317 0.584116 -0.475150 4.296843 -65.626518 16.982903 3.042209 -31.476534 -7.298101 13.612670 10.975733 17.459888 -2.339572 16.527042 6.268794 4.237483 58.114399 1.222831 19.919886 34.134155 11.717827 17.797512 -9.894779 -16.054676 -2.585948 -15.948259 1.629157 0.853229 4.827797 -0.657239 31.372559 9.992368 0.230296 2.632707 19.793726 -6.572103 -9.003051 3.090439 1.741494 -8.820773 -6.684977 -0.622173 9.834113 
-61.853874 51.683640 33.067760 1.012445 -0.611698 88.766319 0.000000 0.000000 0.000000 3.501852 -2.395647 8.444766 5.589326 0.895568 4.580739 -20.898962 12.474947 -8.132602 1.041328 -0.623362 3.935224 -65.976112 20.096966 2.008060 -32.743340 -6.870115 11.754223 10.691668 18.133362 -2.308525 16.959333 5.211595 3.932198 58.891174 1.664866 21.591047 35.085938 11.902558 18.700348 -10.389870 -16.473557 -2.494838 -14.134432 1.649880 0.981116 3.022116 -0.841739 31.109644 8.892345 0.254064 2.783108 17.729181 -7.391521 -8.940800 6.915348 1.518561 -7.119134 -4.343897 -0.456726 10.876939 
-60.959530 51.909103 32.668056 0.440900 -1.126999 87.867065 0.000000 0.000000 0.000000 3.018007 -2.442758 8.630551 5.750289 0.934377 4.678385 -20.787813 11.367503 -7.569951 1.456455 -0.134576 3.553585 -66.891548 22.819902 1.844144 -33.991886 -6.731111 10.556113 10.841066 17.358789 -2.350259 17.139317 5.130090 3.535215 58.508862 2.498865 23.119062 36.438770 12.077378 19.160318 -9.776752 -16.958225 -2.529448 -11.819884 2.469417 2.132941 0.532564 -1.840511 29.794033 8.093243 0.201266 2.715171 15.694561 -8.150630 -9.203846 10.406135 1.606719 -5.680502 -1.962414 -0.251796 11.879269 
-60.047909 52.060421 32.295273 0.452765 -1.751931 87.213432 0.000000 0.000000 0.000000 2.393541 -3.041915 8.566381 5.560591 0.671758 4.492565 -20.533829 11.091931 -7.353680 1.298633 -0.146250 3.036350 -67.814735 25.449627 2.125606 -35.329365 -6.693714 10.433199 11.009084 16.812828 -2.381615 16.967066 4.867733 3.135759 58.374424 3.582503 24.138714 37.290451 12.066499 19.371565 -9.894601 -16.937994 -2.519288 -9.563552 3.044247 3.437130 -1.673789 -3.433726 27.200195 6.757495 0.149856 2.468005 13.663911 -9.019874 -9.409684 13.682387 1.265558 -6.643006 0.704239 0.070293 14.001295 
